@startuml
top to bottom direction
hide empty methods


skinparam BackgroundColor #FFFFFF
skinparam shadowing false
skinparam RoundCorner 5
skinparam BorderColor #454645
skinparam ArrowColor #454645
skinparam FontColor #000000

skinparam class {
  ' Concrete classes style definition
  BackgroundColor #FFFFE0
  FontColor #000000
  AttributeFontColor #000000
  StereotypeFontColor #000000
  HeaderFontColor #000000
  BorderColor #454645
  BorderThickness 1
  
  ' Abstract classes style definition
  BackgroundColor<<abstract>> #D3D3D3
  FontColor<<abstract>> #000000
  AttributeFontColor<<abstract>> #000000
  StereotypeFontColor<<abstract>> #000000
  HeaderFontColor<<abstract>> #000000
  BorderColor<<abstract>> #454645
  BorderThickness<<abstract>> 1
  
  ' Enumerations style definition
  BackgroundColor<<enumeration>> #90EE90
  FontColor<<enumeration>> #000000
  AttributeFontColor<<enumeration>> #000000
  StereotypeFontColor<<enumeration>> #000000
  HeaderFontColor <<enumeration>> #000000
  BorderColor<<enumeration>> #454645
  BorderThickness<<enumeration>> 1
  
  ' CIMDatatypes style definition
  BackgroundColor<<CIMDatatype>> #FFEBCD
  FontColor<<CIMDatatype>> #000000
  AttributeFontColor<<CIMDatatype>> #000000
  StereotypeFontColor<<CIMDatatype>> #000000
  HeaderFontColor<<CIMDatatype>> #000000
  BorderColor<<CIMDatatype>> #454645
  BorderThickness<<CIMDatatype>> 1
  
  ' Compound classes style definition
  BackgroundColor<<Compound>> #FFEBCD
  FontColor<<Compound>> #000000
  AttributeFontColor<<Compound>> #000000
  StereotypeFontColor<<Compound>> #000000
  HeaderFontColor<<Compound>> #000000
  BorderColor<<Compound>> #454645
  BorderThickness<<Compound>> 1
  
  ' Primitive classes style definition
  BackgroundColor<<Primitive>> #E6E6FF
  FontColor<<Primitive>> #000000
  AttributeFontColor<<Primitive>> #000000
  StereotypeFontColor<<Primitive>> #000000
  HeaderFontColor<<Primitive>> #000000
  BorderColor<<Primitive>> #454645
  BorderThickness<<Primitive>> 1
  
  ' Errors classes style definition
  BackgroundColor<<error>> #FFC0CB
  FontColor<<error>> #000000
  AttributeFontColor<<error>> #000000
  StereotypeFontColor<<error>> #000000
  HeaderFontColor<<error>> #000000
  BorderColor<<error>> #454645
  BorderThickness<<error>> 1
}
skinparam shadowing true

hide <<abstract>> stereotype
hide <<error>> stereotype


skinparam note {
  BorderColor #454645
  BorderThickness 1.5
  FontSize 14
  Font Bold
  FontColor #000000
}
' Add a note towards the upper left corner of the diagram
note as TopologyNote #lightyellow
   Profile: Topology
   Namespace: http://iec.ch/TC57/ns/CIM/Topology-EU/3.0#
end note

' ACDCConverterDCTerminal inherits from DCBaseTerminal
class ACDCConverterDCTerminal <<Description>>  {
}

DCBaseTerminal <|-- ACDCConverterDCTerminal

' ACDCTerminal inherits from IdentifiedObject
abstract class ACDCTerminal  <<abstract>> {
}

IdentifiedObject <|-- ACDCTerminal

' BaseVoltage
abstract class BaseVoltage  <<abstract>> {
}


' ConnectivityNode
class ConnectivityNode <<Description>>  {
}

ConnectivityNode "+ConnectivityNodes 0..*" --> "+TopologicalNode 1" TopologicalNode

' ConnectivityNodeContainer
abstract class ConnectivityNodeContainer  <<abstract>> {
}


' DCBaseTerminal inherits from ACDCTerminal
abstract class DCBaseTerminal  <<abstract>> {
}

ACDCTerminal <|-- DCBaseTerminal
DCBaseTerminal "+DCTerminals 0..*" --> "+DCTopologicalNode 1" DCTopologicalNode

' DCEquipmentContainer
abstract class DCEquipmentContainer  <<abstract>> {
}


' DCNode inherits from IdentifiedObject
class DCNode <<Description>>  {
}

IdentifiedObject <|-- DCNode
DCNode "+DCNodes 0..*" --> "+DCTopologicalNode 1" DCTopologicalNode

' DCTerminal inherits from DCBaseTerminal
class DCTerminal <<Description>>  {
}

DCBaseTerminal <|-- DCTerminal

' DCTopologicalNode inherits from IdentifiedObject
class DCTopologicalNode   {
}

IdentifiedObject <|-- DCTopologicalNode
DCTopologicalNode "+DCTopologicalNode 0..*" --> "+DCEquipmentContainer 1" DCEquipmentContainer

' IdentifiedObject
abstract class IdentifiedObject  <<abstract>> {
   +mRID : string [1]
   +description : string [0..1]
   +name : string [0..1]
}


' ReportingGroup inherits from IdentifiedObject
abstract class ReportingGroup  <<abstract>> {
}

IdentifiedObject <|-- ReportingGroup

' Terminal inherits from ACDCTerminal
class Terminal <<Description>>  {
}

ACDCTerminal <|-- Terminal
Terminal "+Terminal 0..*" --> "+TopologicalNode 0..1" TopologicalNode

' TopologicalNode inherits from IdentifiedObject
class TopologicalNode   {
}

IdentifiedObject <|-- TopologicalNode
TopologicalNode "+TopologicalNode 0..*" --> "+BaseVoltage 1" BaseVoltage
TopologicalNode "+TopologicalNode 0..*" --> "+ConnectivityNodeContainer 1" ConnectivityNodeContainer
TopologicalNode "+TopologicalNode 0..*" --> "+ReportingGroup 0..1" ReportingGroup

@enduml
