@startuml
top to bottom direction
hide empty methods


skinparam BackgroundColor #FFFFFF
skinparam shadowing false
skinparam RoundCorner 5
skinparam BorderColor #454645
skinparam ArrowColor #454645
skinparam FontColor #000000

skinparam class {
  ' Concrete classes style definition
  BackgroundColor #FFFFE0
  FontColor #000000
  AttributeFontColor #000000
  StereotypeFontColor #000000
  HeaderFontColor #000000
  BorderColor #454645
  BorderThickness 1
  
  ' Abstract classes style definition
  BackgroundColor<<abstract>> #D3D3D3
  FontColor<<abstract>> #000000
  AttributeFontColor<<abstract>> #000000
  StereotypeFontColor<<abstract>> #000000
  HeaderFontColor<<abstract>> #000000
  BorderColor<<abstract>> #454645
  BorderThickness<<abstract>> 1
  
  ' Enumerations style definition
  BackgroundColor<<enumeration>> #90EE90
  FontColor<<enumeration>> #000000
  AttributeFontColor<<enumeration>> #000000
  StereotypeFontColor<<enumeration>> #000000
  HeaderFontColor <<enumeration>> #000000
  BorderColor<<enumeration>> #454645
  BorderThickness<<enumeration>> 1
  
  ' CIMDatatypes style definition
  BackgroundColor<<CIMDatatype>> #FFEBCD
  FontColor<<CIMDatatype>> #000000
  AttributeFontColor<<CIMDatatype>> #000000
  StereotypeFontColor<<CIMDatatype>> #000000
  HeaderFontColor<<CIMDatatype>> #000000
  BorderColor<<CIMDatatype>> #454645
  BorderThickness<<CIMDatatype>> 1
  
  ' Compound classes style definition
  BackgroundColor<<Compound>> #FFEBCD
  FontColor<<Compound>> #000000
  AttributeFontColor<<Compound>> #000000
  StereotypeFontColor<<Compound>> #000000
  HeaderFontColor<<Compound>> #000000
  BorderColor<<Compound>> #454645
  BorderThickness<<Compound>> 1
  
  ' Primitive classes style definition
  BackgroundColor<<Primitive>> #E6E6FF
  FontColor<<Primitive>> #000000
  AttributeFontColor<<Primitive>> #000000
  StereotypeFontColor<<Primitive>> #000000
  HeaderFontColor<<Primitive>> #000000
  BorderColor<<Primitive>> #454645
  BorderThickness<<Primitive>> 1
  
  ' Errors classes style definition
  BackgroundColor<<error>> #FFC0CB
  FontColor<<error>> #000000
  AttributeFontColor<<error>> #000000
  StereotypeFontColor<<error>> #000000
  HeaderFontColor<<error>> #000000
  BorderColor<<error>> #454645
  BorderThickness<<error>> 1
}
skinparam shadowing true

hide <<abstract>> stereotype
hide <<error>> stereotype


skinparam note {
  BorderColor #454645
  BorderThickness 1.5
  FontSize 14
  Font Bold
  FontColor #000000
}
' Add a note towards the upper left corner of the diagram
note as ShortCircuitNote #lightyellow
   Profile: ShortCircuit
   Namespace: http://iec.ch/TC57/ns/CIM/ShortCircuit-EU/3.0#
   
   Profile Notes:
      This profile represents the equipment of the power system and their hierarchical
      relationships.
      
end note

' ACDCTerminal inherits from IdentifiedObject
abstract class ACDCTerminal  <<abstract>> {
}

IdentifiedObject <|-- ACDCTerminal

' ACLineSegment inherits from Conductor
class ACLineSegment <<Description>>  {
   +b0ch : Susceptance [1]
   +g0ch : Conductance [1]
   +r0 : Resistance [1]
   +shortCircuitEndTemperature : Temperature [1]
   +x0 : Reactance [1]
}

Conductor <|-- ACLineSegment

' AsynchronousMachine inherits from RotatingMachine
class AsynchronousMachine <<Description>>  {
   +converterFedDrive : boolean [1]
   +efficiency : PerCent [1]
   +iaIrRatio : float [1]
   +polePairNumber : integer [1]
   +ratedMechanicalPower : ActivePower [1]
   +reversible : boolean [1]
   +rxLockedRotorRatio : float [0..1]
}

RotatingMachine <|-- AsynchronousMachine

' BusbarSection inherits from Connector
class BusbarSection <<Description>>  {
   +ipMax : CurrentFlow [0..1]
}

Connector <|-- BusbarSection

' ConductingEquipment inherits from Equipment
abstract class ConductingEquipment  <<abstract>> {
}

Equipment <|-- ConductingEquipment

' Conductor inherits from ConductingEquipment
abstract class Conductor  <<abstract>> {
}

ConductingEquipment <|-- Conductor

' Connector inherits from ConductingEquipment
abstract class Connector  <<abstract>> {
}

ConductingEquipment <|-- Connector

' EarthFaultCompensator inherits from ConductingEquipment
abstract class EarthFaultCompensator  <<abstract>> {
   +r : Resistance [0..1]
}

ConductingEquipment <|-- EarthFaultCompensator

' EnergyConnection inherits from ConductingEquipment
abstract class EnergyConnection  <<abstract>> {
}

ConductingEquipment <|-- EnergyConnection

' EnergySource inherits from EnergyConnection
class EnergySource <<Description>>  {
   +r : Resistance [0..1]
   +r0 : Resistance [0..1]
   +rn : Resistance [0..1]
   +x : Reactance [0..1]
   +x0 : Reactance [0..1]
   +xn : Reactance [0..1]
}

EnergyConnection <|-- EnergySource

' Equipment inherits from PowerSystemResource
abstract class Equipment  <<abstract>> {
}

PowerSystemResource <|-- Equipment

' EquivalentBranch inherits from EquivalentEquipment
class EquivalentBranch <<Description>>  {
   +negativeR12 : Resistance [1]
   +negativeR21 : Resistance [1]
   +negativeX12 : Reactance [1]
   +negativeX21 : Reactance [1]
   +positiveR12 : Resistance [1]
   +positiveR21 : Resistance [1]
   +positiveX12 : Reactance [1]
   +positiveX21 : Reactance [1]
   +zeroR12 : Resistance [1]
   +zeroR21 : Resistance [1]
   +zeroX12 : Reactance [1]
   +zeroX21 : Reactance [1]
}

EquivalentEquipment <|-- EquivalentBranch

' EquivalentEquipment inherits from ConductingEquipment
abstract class EquivalentEquipment  <<abstract>> {
}

ConductingEquipment <|-- EquivalentEquipment

' EquivalentInjection inherits from EquivalentEquipment
class EquivalentInjection <<Description>>  {
   +r : Resistance [1]
   +r0 : Resistance [1]
   +r2 : Resistance [1]
   +x : Reactance [1]
   +x0 : Reactance [1]
   +x2 : Reactance [1]
}

EquivalentEquipment <|-- EquivalentInjection

' ExternalNetworkInjection inherits from RegulatingCondEq
class ExternalNetworkInjection <<Description>>  {
   +ikSecond : boolean [0..1]
   +maxInitialSymShCCurrent : CurrentFlow [1]
   +maxR0ToX0Ratio : float [1]
   +maxR1ToX1Ratio : float [1]
   +maxZ0ToZ1Ratio : float [1]
   +minInitialSymShCCurrent : CurrentFlow [1]
   +minR0ToX0Ratio : float [1]
   +minR1ToX1Ratio : float [1]
   +minZ0ToZ1Ratio : float [1]
   +voltageFactor : PU [0..1]
}

RegulatingCondEq <|-- ExternalNetworkInjection

' GroundingImpedance inherits from EarthFaultCompensator
class GroundingImpedance <<Description>>  {
   +x : Reactance [1]
}

EarthFaultCompensator <|-- GroundingImpedance

' IdentifiedObject
abstract class IdentifiedObject  <<abstract>> {
   +mRID : string [1]
}


' LinearShuntCompensator inherits from ShuntCompensator
class LinearShuntCompensator <<Description>>  {
   +b0PerSection : Susceptance [1]
   +g0PerSection : Conductance [1]
}

ShuntCompensator <|-- LinearShuntCompensator

' MutualCoupling inherits from IdentifiedObject
class MutualCoupling   {
   +b0ch : Susceptance [1]
   +distance11 : Length [1]
   +distance12 : Length [1]
   +distance21 : Length [1]
   +distance22 : Length [1]
   +g0ch : Conductance [1]
   +r0 : Resistance [1]
   +x0 : Reactance [1]
}

IdentifiedObject <|-- MutualCoupling
MutualCoupling "+HasFirstMutualCoupling 0..*" --> "+First_Terminal 1" Terminal
MutualCoupling "+HasSecondMutualCoupling 0..*" --> "+Second_Terminal 1" Terminal

' NonlinearShuntCompensatorPoint
class NonlinearShuntCompensatorPoint <<Description>>  {
   +b0 : Susceptance [1]
   +g0 : Conductance [1]
}


' PetersenCoil inherits from EarthFaultCompensator
class PetersenCoil <<Description>>  {
   +mode : PetersenCoilModeKind [1]
   +nominalU : Voltage [1]
   +offsetCurrent : CurrentFlow [0..1]
   +positionCurrent : CurrentFlow [0..1]
   +xGroundMax : Reactance [1]
   +xGroundMin : Reactance [1]
   +xGroundNominal : Reactance [1]
}

EarthFaultCompensator <|-- PetersenCoil

' PowerSystemResource inherits from IdentifiedObject
abstract class PowerSystemResource  <<abstract>> {
}

IdentifiedObject <|-- PowerSystemResource

' PowerTransformer inherits from ConductingEquipment
class PowerTransformer <<Description>>  {
   +beforeShCircuitHighestOperatingCurrent : CurrentFlow [0..1]
   +beforeShCircuitHighestOperatingVoltage : Voltage [0..1]
   +beforeShortCircuitAnglePf : AngleDegrees [0..1]
   +highSideMinOperatingU : Voltage [0..1]
   +isPartOfGeneratorUnit : boolean [1]
   +operationalValuesConsidered : boolean [0..1]
}

ConductingEquipment <|-- PowerTransformer

' PowerTransformerEnd inherits from TransformerEnd
class PowerTransformerEnd <<Description>>  {
   +b0 : Susceptance [1]
   +g0 : Conductance [1]
   +phaseAngleClock : integer [1]
   +r0 : Resistance [1]
   +x0 : Reactance [1]
}

TransformerEnd <|-- PowerTransformerEnd

' RegulatingCondEq inherits from EnergyConnection
abstract class RegulatingCondEq  <<abstract>> {
}

EnergyConnection <|-- RegulatingCondEq

' RotatingMachine inherits from RegulatingCondEq
abstract class RotatingMachine  <<abstract>> {
}

RegulatingCondEq <|-- RotatingMachine

' SeriesCompensator inherits from ConductingEquipment
class SeriesCompensator <<Description>>  {
   +r0 : Resistance [1]
   +varistorPresent : boolean [1]
   +varistorRatedCurrent : CurrentFlow [0..1]
   +varistorVoltageThreshold : Voltage [0..1]
   +x0 : Reactance [1]
}

ConductingEquipment <|-- SeriesCompensator

' ShuntCompensator inherits from RegulatingCondEq
abstract class ShuntCompensator  <<abstract>> {
}

RegulatingCondEq <|-- ShuntCompensator

' SynchronousMachine inherits from RotatingMachine
class SynchronousMachine <<Description>>  {
   +earthing : boolean [1]
   +earthingStarPointR : Resistance [0..1]
   +earthingStarPointX : Reactance [0..1]
   +ikk : CurrentFlow [0..1]
   +mu : float [0..1]
   +r : Resistance [1]
   +r0 : Resistance [1]
   +r2 : Resistance [1]
   +satDirectSubtransX : PU [1]
   +satDirectSyncX : PU [0..1]
   +satDirectTransX : PU [0..1]
   +shortCircuitRotorType : ShortCircuitRotorKind [0..1]
   +voltageRegulationRange : PerCent [0..1]
   +x0 : Reactance [1]
   +x2 : Reactance [1]
}

RotatingMachine <|-- SynchronousMachine

' Terminal inherits from ACDCTerminal
abstract class Terminal  <<abstract>> {
}

ACDCTerminal <|-- Terminal

' TransformerEnd inherits from IdentifiedObject
abstract class TransformerEnd  <<abstract>> {
   +grounded : boolean [1]
   +rground : Resistance [0..1]
   +xground : Reactance [0..1]
}

IdentifiedObject <|-- TransformerEnd

@enduml
